<?xml version="1.0" standalone="no"?><!DOCTYPE svg PUBLIC "-//W3C//DTD SVG 1.1//EN" "http://www.w3.org/Graphics/SVG/1.1/DTD/svg11.dtd"><svg t="1640608208930" class="icon" viewBox="0 0 1024 1024" version="1.1" xmlns="http://www.w3.org/2000/svg" p-id="5635" xmlns:xlink="http://www.w3.org/1999/xlink" width="64" height="64"><defs><style type="text/css"></style></defs><path d="M736 896c-88.224 0-160-71.776-160-160l0-96-128 0 0 96c0 88.224-71.776 160-160 160s-160-71.776-160-160 71.776-160 160-160l96 0 0-128-96 0c-88.224 0-160-71.776-160-160s71.776-160 160-160 160 71.776 160 160l0 96 128 0 0-96c0-88.224 71.776-160 160-160s160 71.776 160 160-71.776 160-160 160l-96 0 0 128 96 0c88.224 0 160 71.776 160 160s-71.776 160-160 160zM640 640l0 96c0 52.928 43.072 96 96 96s96-43.072 96-96-43.072-96-96-96l-96 0zM288 640c-52.928 0-96 43.072-96 96s43.072 96 96 96 96-43.072 96-96l0-96-96 0zM448 576l128 0 0-128-128 0 0 128zM640 384l96 0c52.928 0 96-43.072 96-96s-43.072-96-96-96-96 43.072-96 96l0 96zM288 192c-52.928 0-96 43.072-96 96s43.072 96 96 96l96 0 0-96c0-52.928-43.072-96-96-96z" p-id="5636" fill="#2090FF"></path></svg>